<svg width="58" height="24" viewBox="0 0 58 24" fill="none" xmlns="http://www.w3.org/2000/svg">
<path d="M8.50997 5.50488C9.18945 5.26073 9.91423 5.13051 10.6662 5.13051C13.9579 5.13051 16.7061 7.65019 17.3342 11L22 9.97455C20.9309 4.28411 16.2621 0 10.6662 0C9.38272 0 8.15361 0.224623 7 0.641314L8.50997 5.50488Z" fill="#FFCB05"/>
<path d="M3.86992 21L7 17.2946C5.60419 15.9988 4.72358 14.1068 4.72358 11.9984C4.72358 9.89315 5.60419 8.00122 7 6.70856L3.86992 3C1.49765 5.20254 0 8.41851 0 11.9984C0 15.5815 1.49765 18.7975 3.86992 21" fill="#00A4E0"/>
<path d="M17.3342 13C16.703 16.3485 13.9579 18.8665 10.6692 18.8665C9.91423 18.8665 9.18643 18.7362 8.50997 18.4886L7 23.3616C8.15361 23.7752 9.38575 24 10.6692 24C16.2591 24 20.9249 19.7199 22 14.0326L17.3342 13Z" fill="#EF4123"/>
<path d="M26.0296 17.4178C25.8821 17.1578 25.6853 16.7425 25.5638 16.435C24.8551 14.6344 24.8232 12.7703 25.4192 10.9824C26.0759 9.02008 27.3315 7.52061 28.9544 6.75343C30.994 5.79288 33.2476 5.97992 35.2033 7.25115C36.4444 8.031 37.3238 9.23565 37.9921 10.9412C38.076 11.1599 38.1512 11.3913 38.2264 11.5911L26.0296 17.4178ZM30.1029 9.64776C28.6536 10.3293 27.9072 11.8193 28.0634 13.5629L34.1965 10.6685C33.1406 9.31173 31.7693 8.86157 30.1029 9.64776V9.64776ZM34.9603 15.9436C34.9574 15.9436 34.9574 15.9468 34.9574 15.9468L34.8301 15.8517C34.4627 16.5016 33.8927 17.031 33.1724 17.3734C31.8011 18.0264 30.5311 17.8584 29.6169 16.9803L29.533 17.1198C29.533 17.1198 29.533 17.1166 29.5301 17.1166L27.9737 19.6685C28.3614 19.9634 28.7751 20.2106 29.209 20.4104C30.9274 21.1934 32.6864 21.1553 34.4193 20.3311C35.6719 19.7351 36.6555 18.8285 37.3267 17.6777L34.9603 15.9436ZM42.4878 3V17.1832L44.5013 18.0771L43.3586 21L41.1368 19.9856C40.6392 19.7478 40.2978 19.3864 40.0432 18.9775C39.7973 18.5622 39.6151 17.9884 39.6151 17.2212V3H42.4878ZM47.701 13.5724C47.701 12.3646 48.1899 11.2804 48.9594 10.5449L46.8938 8.02149C45.4936 9.3783 44.6113 11.3596 44.6113 13.566C44.6084 15.7756 45.4907 17.7601 46.888 19.1169L48.9507 16.5935C48.1841 15.8549 47.701 14.777 47.701 13.5724V13.5724ZM51.3693 17.5953C50.9643 17.5953 50.5708 17.5192 50.2063 17.3861L49.2198 20.5974C49.8939 20.8447 50.6142 20.981 51.3664 20.981C54.6355 20.9842 57.3635 18.4417 57.9971 15.0655L54.9653 14.3871C54.621 16.2226 53.1427 17.5985 51.3693 17.5953V17.5953ZM51.378 6.16379C50.6287 6.16379 49.9083 6.29694 49.2343 6.54104L50.2121 9.75555C50.5795 9.6224 50.97 9.54949 51.3751 9.54949C53.1514 9.55266 54.6326 10.9348 54.9681 12.7735L58 12.1014C57.378 8.71891 54.6499 6.16696 51.378 6.16379V6.16379Z" fill="white"/>
</svg>
